<svg width="13" height="12" viewBox="0 0 13 12" fill="none" xmlns="http://www.w3.org/2000/svg">
<path d="M6.38567 11.92C6.50842 11.8724 6.62057 11.801 6.71567 11.71L11.7157 6.71C11.8089 6.61676 11.8829 6.50607 11.9333 6.38425C11.9838 6.26243 12.0098 6.13186 12.0098 6C12.0098 5.7337 11.904 5.4783 11.7157 5.29C11.6224 5.19676 11.5117 5.1228 11.3899 5.07234C11.2681 5.02188 11.1375 4.99591 11.0057 4.99591C10.7394 4.99591 10.484 5.1017 10.2957 5.29L7.00567 8.59L7.00567 1C7.00567 0.734783 6.90032 0.48043 6.71278 0.292893C6.52524 0.105357 6.27089 -2.50854e-07 6.00567 -2.62447e-07C5.74046 -2.7404e-07 5.4861 0.105357 5.29857 0.292893C5.11103 0.480429 5.00567 0.734783 5.00567 1L5.00567 8.59L1.71567 5.29C1.62271 5.19627 1.51211 5.12188 1.39025 5.07111C1.26839 5.02034 1.13769 4.9942 1.00567 4.9942C0.873663 4.9942 0.742957 5.02034 0.621097 5.07111C0.499238 5.12188 0.388638 5.19627 0.295675 5.29C0.201947 5.38296 0.127551 5.49356 0.076782 5.61542C0.0260131 5.73728 -0.000124234 5.86799 -0.00012424 6C-0.000124246 6.13201 0.0260131 6.26272 0.0767819 6.38458C0.127551 6.50644 0.201947 6.61704 0.295675 6.71L5.29567 11.71C5.39078 11.801 5.50292 11.8724 5.62567 11.92C5.86913 12.02 6.14221 12.02 6.38567 11.92Z" fill="#FF500F"/>
</svg>
