<?xml version="1.0" standalone="no"?>
<!DOCTYPE svg PUBLIC "-//W3C//DTD SVG 20010904//EN"
 "http://www.w3.org/TR/2001/REC-SVG-20010904/DTD/svg10.dtd">
<svg version="1.0" xmlns="http://www.w3.org/2000/svg"
 width="24.000000pt" height="24.000000pt" viewBox="0 0 24.000000 24.000000"
 preserveAspectRatio="xMidYMid meet">

<g transform="translate(0.000000,24.000000) scale(0.100000,-0.100000)"
fill="#000000" stroke="none">
<path d="M75 231 c-45 -20 -70 -60 -70 -112 0 -41 5 -53 30 -78 17 -16 42 -33
58 -36 26 -7 27 -6 27 39 0 25 -4 46 -10 46 -5 0 -10 7 -10 15 0 8 4 15 9 15
5 0 11 14 15 30 4 24 11 30 31 30 29 0 32 -8 8 -26 -17 -13 -17 -15 0 -28 21
-16 22 -36 2 -36 -11 0 -15 -11 -15 -40 0 -49 15 -52 56 -9 24 25 29 39 29 79
0 42 -5 54 -31 81 -33 33 -92 46 -129 30z"/>
</g>
</svg>
