<svg width="20" height="18" viewBox="0 0 20 18" fill="none" xmlns="http://www.w3.org/2000/svg">
<path d="M4.62 10.0799C4.4959 10.1249 4.3832 10.1965 4.28989 10.2898C4.19657 10.3832 4.12491 10.4959 4.08 10.6199C4.00726 10.8017 3.98945 11.0008 4.02879 11.1925C4.06812 11.3843 4.16287 11.5603 4.30128 11.6987C4.43969 11.8371 4.61569 11.9318 4.80744 11.9712C4.99919 12.0105 5.19827 11.9927 5.38 11.9199C5.50118 11.8693 5.6128 11.7983 5.71 11.7099C5.79833 11.6127 5.86936 11.5011 5.92 11.3799C5.97598 11.2613 6.00338 11.1311 6 10.9999C5.99632 10.7352 5.89273 10.4816 5.71 10.2899C5.56938 10.1512 5.3908 10.0572 5.19681 10.0198C5.00282 9.98245 4.80211 10.0034 4.62 10.0799ZM17.76 6.07995L16.4 2.04995C16.1926 1.46318 15.8077 0.955452 15.2989 0.59711C14.7901 0.238767 14.1824 0.0475499 13.56 0.0499491H6.44C5.81764 0.0475499 5.20995 0.238767 4.7011 0.59711C4.19225 0.955452 3.80745 1.46318 3.6 2.04995L2.24 6.10995C1.60033 6.27746 1.03392 6.65161 0.628829 7.17425C0.223743 7.69688 0.00267662 8.33871 0 8.99995V12.9999C0.00173951 13.6189 0.194879 14.2221 0.552938 14.727C0.910998 15.2319 1.41645 15.6136 2 15.8199V16.9999C2 17.2652 2.10536 17.5195 2.29289 17.7071C2.48043 17.8946 2.73478 17.9999 3 17.9999C3.26522 17.9999 3.51957 17.8946 3.70711 17.7071C3.89464 17.5195 4 17.2652 4 16.9999V15.9999H16V16.9999C16 17.2652 16.1054 17.5195 16.2929 17.7071C16.4804 17.8946 16.7348 17.9999 17 17.9999C17.2652 17.9999 17.5196 17.8946 17.7071 17.7071C17.8946 17.5195 18 17.2652 18 16.9999V15.8199C18.5835 15.6136 19.089 15.2319 19.4471 14.727C19.8051 14.2221 19.9983 13.6189 20 12.9999V8.99995C19.9973 8.33871 19.7763 7.69688 19.3712 7.17425C18.9661 6.65161 18.3997 6.27746 17.76 6.10995V6.07995ZM5.49 2.67995C5.55709 2.48133 5.6849 2.30881 5.85537 2.18679C6.02584 2.06477 6.23036 1.99941 6.44 1.99995H13.56C13.7781 1.98857 13.9939 2.04888 14.1744 2.17166C14.355 2.29445 14.4904 2.47297 14.56 2.67995L15.61 5.99995H4.39L5.49 2.67995ZM18 12.9999C18 13.2652 17.8946 13.5195 17.7071 13.7071C17.5196 13.8946 17.2652 13.9999 17 13.9999H3C2.73478 13.9999 2.48043 13.8946 2.29289 13.7071C2.10536 13.5195 2 13.2652 2 12.9999V8.99995C2 8.73473 2.10536 8.48038 2.29289 8.29284C2.48043 8.10531 2.73478 7.99995 3 7.99995H17C17.2652 7.99995 17.5196 8.10531 17.7071 8.29284C17.8946 8.48038 18 8.73473 18 8.99995V12.9999ZM14.62 10.0799C14.4959 10.1249 14.3832 10.1965 14.2899 10.2898C14.1966 10.3832 14.1249 10.4959 14.08 10.6199C14.0073 10.8017 13.9895 11.0008 14.0288 11.1925C14.0681 11.3843 14.1629 11.5603 14.3013 11.6987C14.4397 11.8371 14.6157 11.9318 14.8074 11.9712C14.9992 12.0105 15.1983 11.9927 15.38 11.9199C15.5041 11.875 15.6168 11.8034 15.7101 11.7101C15.8034 11.6167 15.8751 11.504 15.92 11.3799C15.976 11.2613 16.0034 11.1311 16 10.9999C15.9963 10.7352 15.8927 10.4816 15.71 10.2899C15.5694 10.1512 15.3908 10.0572 15.1968 10.0198C15.0028 9.98245 14.8021 10.0034 14.62 10.0799ZM11 9.99995H9C8.73478 9.99995 8.48043 10.1053 8.29289 10.2928C8.10536 10.4804 8 10.7347 8 10.9999C8 11.2652 8.10536 11.5195 8.29289 11.7071C8.48043 11.8946 8.73478 11.9999 9 11.9999H11C11.2652 11.9999 11.5196 11.8946 11.7071 11.7071C11.8946 11.5195 12 11.2652 12 10.9999C12 10.7347 11.8946 10.4804 11.7071 10.2928C11.5196 10.1053 11.2652 9.99995 11 9.99995Z" fill="#FF500F"/>
</svg>
