<?xml version="1.0" standalone="no"?>
<!DOCTYPE svg PUBLIC "-//W3C//DTD SVG 20010904//EN"
 "http://www.w3.org/TR/2001/REC-SVG-20010904/DTD/svg10.dtd">
<svg version="1.0" xmlns="http://www.w3.org/2000/svg"
 width="24.000000pt" height="24.000000pt" viewBox="0 0 24.000000 24.000000"
 preserveAspectRatio="xMidYMid meet">

<g transform="translate(0.000000,24.000000) scale(0.100000,-0.100000)"
fill="#000000" stroke="none">
<path d="M25 215 c-22 -21 -25 -33 -25 -95 0 -62 3 -74 25 -95 21 -22 33 -25
93 -25 55 0 75 4 96 21 24 19 26 26 26 99 0 73 -2 80 -26 99 -21 17 -41 21
-96 21 -60 0 -72 -3 -93 -25z m177 -12 c14 -12 18 -31 18 -81 0 -89 -12 -102
-101 -102 -84 0 -99 15 -99 102 0 80 19 98 102 98 43 0 67 -5 80 -17z"/>
<path d="M175 189 c-10 -15 3 -25 16 -12 7 7 7 13 1 17 -6 3 -14 1 -17 -5z"/>
<path d="M77 162 c-22 -24 -21 -65 1 -85 40 -36 102 -9 102 45 0 51 -69 78
-103 40z m73 -17 c26 -32 -13 -81 -47 -59 -10 6 -19 19 -21 28 -8 38 43 61 68
31z"/>
</g>
</svg>
