<svg width="244" height="50" viewBox="0 0 244 50" fill="none" xmlns="http://www.w3.org/2000/svg">
<path d="M42.1866 0H4.98056C2.22851 0 0 2.22851 0 4.98056V42.1866C0 44.9387 2.22851 47.1672 4.98056 47.1672H42.1866C44.9387 47.1672 47.1672 44.9387 47.1672 42.1866V4.98056C47.1672 2.22851 44.9387 0 42.1866 0ZM46.189 42.1866C46.189 44.3945 44.3945 46.189 42.1866 46.189H4.98056C2.77272 46.189 0.9782 44.3945 0.9782 42.1866V4.98056C0.9782 2.77272 2.77272 0.9782 4.98056 0.9782H42.1866C44.3945 0.9782 46.189 2.77272 46.189 4.98056V42.1866Z" fill="#FF500F"/>
<path d="M33.2829 38.1295C31.4987 38.1295 30.0487 36.6829 30.0487 34.8953V21.9651C30.0487 18.4002 27.1485 15.5 23.5836 15.5H20.3493C18.5651 15.5 17.1151 14.0534 17.1151 12.2658C17.1151 10.4781 18.5617 9.03149 20.3493 9.03149H23.5836C30.7134 9.03149 36.5137 14.8318 36.5137 21.9617V34.8918C36.5137 36.6829 35.0671 38.1295 33.2829 38.1295Z" fill="#FF500F"/>
<path d="M33.2829 31.6643H20.3493C18.5651 31.6643 17.115 30.2143 17.115 28.4301C17.115 26.6459 18.5651 25.1958 20.3493 25.1958H23.5836C25.3678 25.1958 26.8178 23.7492 26.8178 21.9616C26.8178 20.1774 25.3712 18.7273 23.5836 18.7273H20.3493C15.0002 18.7273 10.65 23.0775 10.65 28.4266C10.65 33.7757 15.0002 38.126 20.3493 38.126H33.2795C35.0637 38.126 36.5137 36.6793 36.5137 34.8917C36.5137 33.1041 35.0671 31.6643 33.2829 31.6643Z" fill="#FF500F"/>
<path d="M31.3092 9.02785C30.5859 9.02785 30.0004 8.44231 30.0004 7.71899V3.86819C30.0004 3.14487 30.5859 2.55933 31.3092 2.55933H35.16C35.8833 2.55933 36.4689 3.14487 36.4689 3.86819V7.71899C36.4689 8.44231 35.8833 9.02785 35.16 9.02785H31.3092Z" fill="#FF500F"/>
<path d="M79.8025 13.953C80.4501 13.953 80.7738 14.2767 80.7738 14.9243V39.5687C80.7738 40.2163 80.4501 40.5401 79.8025 40.5401H74.853C74.3811 40.5401 74.0573 40.2163 73.8816 39.5687L73.4821 36.3104C71.0469 39.5446 68.009 41.16 64.4027 41.16C60.9721 41.16 58.0375 39.8925 55.623 37.3816C53.212 34.8706 51.9927 31.4883 51.9927 27.2345C51.9927 22.9841 53.212 19.6017 55.6471 17.0632C58.0582 14.5523 60.9446 13.2848 64.2512 13.2848C67.8092 13.2848 70.916 14.8037 73.5269 17.8348L73.8748 14.9243C73.9746 14.2767 74.2984 13.953 74.8461 13.953H79.8025ZM71.5222 33.1553C72.9379 31.8361 73.6371 29.897 73.6371 27.386C73.6371 24.8751 72.9138 22.9083 71.4981 21.4927C70.0825 20.0771 68.3155 19.3537 66.2524 19.3537C64.2133 19.3537 62.498 20.0495 61.1306 21.441C59.7632 22.8326 59.0674 24.7752 59.0674 27.2345C59.0674 29.7213 59.7632 31.6605 61.1547 33.0554C62.5462 34.447 64.2891 35.1462 66.3522 35.1462C68.3879 35.1427 70.1032 34.4745 71.5222 33.1553ZM88.007 37.0854C85.4444 34.3987 84.1769 31.0921 84.1769 27.1862C84.1769 23.332 85.4719 20.0495 88.0311 17.3629C90.5903 14.6763 93.8486 13.333 97.8545 13.333C100.018 13.333 102.008 13.7566 103.824 14.6005C105.639 15.4719 107.082 16.5638 108.15 17.9312C108.573 18.4548 108.498 18.9025 107.95 19.2986L104.643 21.7855C104.171 22.1092 103.724 22.0576 103.324 21.6374C101.809 20.1184 100.042 19.3503 98.0783 19.3503C95.9669 19.3503 94.2723 20.0943 92.9566 21.6132C91.6408 23.1288 90.9933 24.9956 90.9933 27.2345C90.9933 29.4974 91.6408 31.3643 92.9566 32.8557C94.2757 34.3471 95.991 35.0945 98.13 35.0945C99.4251 35.0945 100.417 34.7466 101.264 34.4229C101.764 34.2231 102.408 33.7753 102.632 33.579C102.756 33.5032 102.928 33.3551 103.155 33.1553L103.527 32.8557C103.999 32.4837 104.471 32.432 104.895 32.7558L108.153 35.0945C108.625 35.4665 108.725 35.9143 108.401 36.4103C107.382 37.7777 105.914 38.8971 103.999 39.7685C102.084 40.664 100.021 41.1118 97.8062 41.1118C93.828 41.1118 90.5696 39.7685 88.007 37.0854ZM132.326 17.1115C134.761 19.6741 135.98 23.0048 135.98 27.1346C135.98 27.6064 135.956 27.9784 135.932 28.254C135.832 28.874 135.484 29.1736 134.864 29.1736H116.437C117.108 33.4274 119.719 35.5423 124.269 35.5423C127.18 35.5423 129.567 34.3987 131.406 32.1358C131.878 31.6639 132.35 31.6364 132.773 32.0876L135.136 34.3746C135.584 34.8982 135.536 35.4183 134.988 35.9659C132.129 39.3965 128.375 41.1153 123.673 41.1153C119.495 41.1153 116.113 39.8202 113.502 37.261C110.891 34.6984 109.576 31.3918 109.576 27.3619C109.576 23.4078 110.795 20.0736 113.23 17.3663C115.665 14.6556 118.9 13.2882 122.902 13.2882C126.729 13.2848 129.863 14.5523 132.326 17.1115ZM116.333 24.6477H129.612C129.14 20.8417 126.753 18.8026 123.146 18.8026C119.468 18.8061 116.857 20.8934 116.333 24.6477ZM164.727 17.015C167.138 19.5501 168.357 22.9324 168.357 27.1862C168.357 31.44 167.138 34.8224 164.727 37.3333C162.316 39.8443 159.381 41.1118 155.947 41.1118C152.341 41.1118 149.358 39.5205 146.971 36.362V48.8479C146.971 49.4954 146.647 49.8192 146 49.8192H140.454C139.807 49.8192 139.483 49.4954 139.483 48.8479V14.8761C139.483 14.2285 139.807 13.9047 140.454 13.9047H145.652C146.124 13.9047 146.448 14.2285 146.623 14.8761L146.971 17.7108C149.63 14.728 152.692 13.2365 156.199 13.2365C159.457 13.2331 162.316 14.5006 164.727 17.015ZM159.206 33.0279C160.601 31.6605 161.296 29.6972 161.296 27.1828C161.296 24.696 160.601 22.7568 159.233 21.3653C157.866 19.9978 156.147 19.2986 154.111 19.2986C152.045 19.2986 150.281 20.0219 148.862 21.4376C147.446 22.8532 146.723 24.82 146.723 27.3309C146.723 29.8418 147.419 31.781 148.835 33.1002C150.254 34.416 151.969 35.0911 154.008 35.0911C156.075 35.0945 157.814 34.3987 159.206 33.0279ZM172.931 40.5401C172.284 40.5401 171.96 40.2163 171.96 39.5687V4.52917C171.96 3.88163 172.284 3.55786 172.931 3.55786H178.525C179.173 3.55786 179.496 3.88163 179.496 4.52917V39.5687C179.496 40.2163 179.173 40.5401 178.525 40.5401H172.931ZM210.912 13.953C211.56 13.953 211.884 14.2767 211.884 14.9243V39.5687C211.884 40.2163 211.56 40.5401 210.912 40.5401H205.963C205.491 40.5401 205.167 40.2163 204.992 39.5687L204.592 36.3104C202.157 39.5446 199.119 41.16 195.516 41.16C192.085 41.16 189.151 39.8925 186.736 37.3816C184.325 34.8706 183.106 31.4883 183.106 27.2345C183.106 22.9841 184.325 19.6017 186.76 17.0632C189.172 14.5523 192.058 13.2848 195.365 13.2848C198.923 13.2848 202.029 14.8037 204.64 17.8348L204.988 14.9243C205.088 14.2767 205.412 13.953 205.959 13.953H210.912ZM202.632 33.1553C204.048 31.8361 204.747 29.897 204.747 27.386C204.747 24.8751 204.024 22.9083 202.608 21.4927C201.192 20.0771 199.425 19.3537 197.362 19.3537C195.323 19.3537 193.608 20.0495 192.24 21.441C190.873 22.8326 190.177 24.7752 190.177 27.2345C190.177 29.7213 190.873 31.6605 192.265 33.0554C193.656 34.447 195.399 35.1462 197.462 35.1462C199.498 35.1427 201.213 34.4745 202.632 33.1553ZM240.927 16.6396C242.79 18.8543 243.737 21.9852 243.737 26.0152V39.5687C243.737 40.2163 243.413 40.5401 242.766 40.5401H237.221C236.573 40.5401 236.253 40.2163 236.253 39.5687V26.0152C236.253 22.2091 234.313 20.0219 230.907 20.0219C227.225 20.0219 224.738 22.433 224.542 27.6064V39.5687C224.542 40.2163 224.218 40.5401 223.57 40.5401H218.025C217.378 40.5401 217.054 40.2163 217.054 39.5687V14.9243C217.054 14.2767 217.378 13.953 218.025 13.953H223.223C223.694 13.953 224.018 14.2767 224.194 14.9243L224.49 17.4628C226.905 14.7038 229.863 13.333 233.37 13.333C236.525 13.333 239.036 14.4283 240.927 16.6396Z" fill="#FF500F"/>
<path d="M61.3821 5.11842C61.5577 5.11842 61.6438 5.20453 61.6438 5.38019V10.0542C61.6438 10.2299 61.5577 10.316 61.3821 10.316H60.4107C60.2558 10.316 60.1628 10.2299 60.1352 10.0542L60.0422 9.44799C59.2328 10.1093 58.2925 10.4365 57.2144 10.4365C55.94 10.4365 54.8584 9.97843 53.9629 9.06911C53.0605 8.1598 52.6093 7.00249 52.6093 5.58686C52.6093 4.16433 53.0674 2.9588 53.9904 1.98405C54.9135 1.00585 56.064 0.516745 57.452 0.496079C58.2408 0.48919 59.0089 0.637299 59.7425 0.940403C60.4762 1.2504 61.0411 1.62928 61.4268 2.07705C61.5026 2.20449 61.4888 2.31126 61.3993 2.39393L60.2799 3.33768C60.2006 3.41002 60.1042 3.39968 59.9905 3.31013C59.9699 3.30324 59.9182 3.25502 59.8218 3.1758C59.7219 3.10002 59.653 3.04836 59.6185 3.02769C59.5772 3.00702 59.5118 2.9588 59.4084 2.88647C59.2052 2.75214 59.1191 2.71081 58.8952 2.60403C58.6713 2.49726 58.5129 2.45593 58.2752 2.39393C58.0341 2.33882 57.7896 2.32504 57.514 2.32504C56.6598 2.3526 55.9641 2.66948 55.4199 3.2688C54.8756 3.87501 54.6035 4.62932 54.6035 5.52486C54.6035 6.43417 54.8584 7.18849 55.3785 7.78092C55.8917 8.37335 56.6116 8.67646 57.5416 8.68335C58.5715 8.70401 59.3602 8.35957 59.9044 7.65348V6.57539H57.6415C57.4589 6.57539 57.3659 6.48928 57.3659 6.31362V5.37675C57.3659 5.20109 57.4589 5.11498 57.6415 5.11498H61.3821V5.11842Z" fill="#FF500F"/>
<path d="M72.9861 9.99885C73.0929 10.1607 73.0137 10.3157 72.7898 10.3157H71.2743C71.1331 10.3157 71.0401 10.2468 70.985 10.1194L69.2869 6.75769H67.3133V10.0505C67.3133 10.2262 67.2272 10.3123 67.0515 10.3123H65.5497C65.3741 10.3123 65.288 10.2262 65.288 10.0505V0.919488C65.288 0.743825 65.3741 0.657715 65.5497 0.657715H69.2869C70.303 0.657715 71.1331 0.933264 71.7737 1.48092C72.4075 2.02513 72.7244 2.75878 72.7244 3.66809C72.7244 4.85984 72.1113 5.84493 71.0814 6.3547L72.9861 9.99885ZM67.3133 2.35579V5.06306H69.2869C69.7519 5.06306 70.1204 4.92873 70.3925 4.66007C70.6543 4.3983 70.7886 4.08142 70.7886 3.70943C70.7886 3.33743 70.6543 3.024 70.3856 2.75189C70.1101 2.49012 69.745 2.35579 69.2869 2.35579H67.3133Z" fill="#FF500F"/>
<path d="M77.1745 9.22386C76.4546 8.40755 76.0895 7.31224 76.0895 5.93104V0.919488C76.0895 0.743825 76.1757 0.657715 76.3513 0.657715H77.8531C78.0287 0.657715 78.1148 0.743825 78.1148 0.919488V5.93104C78.1148 7.59467 78.7899 8.42821 80.1298 8.42132C81.4627 8.42132 82.131 7.59123 82.131 5.93104V0.919488C82.131 0.743825 82.2171 0.657715 82.3927 0.657715H83.8945C84.0701 0.657715 84.1562 0.743825 84.1562 0.919488V5.93104C84.1562 7.31224 83.7911 8.41099 83.0713 9.22386C82.3514 10.0402 81.3663 10.4501 80.1298 10.4501C78.8795 10.4501 77.8944 10.0402 77.1745 9.22386Z" fill="#FF500F"/>
<path d="M91.9164 0.657715C92.9325 0.657715 93.7626 0.933264 94.4032 1.48092C95.037 2.02513 95.3539 2.75878 95.3539 3.66809C95.3539 4.57741 95.037 5.32483 94.4032 5.8966C93.7626 6.46836 92.9359 6.75769 91.9164 6.75769H89.9428V10.0505C89.9428 10.2262 89.8567 10.3123 89.681 10.3123H88.1793C88.0036 10.3123 87.9175 10.2262 87.9175 10.0505V0.919488C87.9175 0.743825 88.0036 0.657715 88.1793 0.657715H91.9164ZM91.9164 5.06306C92.3814 5.06306 92.7499 4.92873 93.022 4.66007C93.2838 4.3983 93.4181 4.08142 93.4181 3.70943C93.4181 3.33743 93.2838 3.024 93.0151 2.75189C92.7396 2.49012 92.3745 2.35579 91.9164 2.35579H89.9428V5.06306H91.9164Z" fill="#FF500F"/>
<path d="M103.024 10.4845C101.523 10.4845 100.331 10.0402 99.4492 9.14462C98.5605 8.24908 98.1162 7.05733 98.1162 5.55559C98.1162 4.04695 98.5605 2.83454 99.4561 1.92522C100.352 1.01591 101.536 0.564697 103.024 0.564697C104.526 0.564697 105.718 1.0228 106.607 1.93211C107.488 2.84142 107.933 4.05384 107.933 5.55559C107.933 7.05733 107.488 8.24908 106.607 9.14462C105.718 10.0402 104.526 10.4845 103.024 10.4845ZM103.031 8.60385C103.913 8.60385 104.633 8.33519 105.208 7.80131C105.78 7.27088 106.062 6.51657 106.062 5.55214C106.062 4.57394 105.773 3.81618 105.201 3.25475C104.63 2.70365 103.903 2.42465 103.024 2.42465C102.156 2.42465 101.443 2.70021 100.868 3.25475C100.297 3.81274 100.007 4.57394 100.007 5.55214C100.007 6.51657 100.29 7.27088 100.854 7.80131C101.423 8.33519 102.15 8.60385 103.031 8.60385Z" fill="#FF500F"/>
</svg>
