<svg width="21" height="20" viewBox="0 0 21 20" fill="none" xmlns="http://www.w3.org/2000/svg">
<path d="M20.7104 18.3109L17.0004 14.6309C18.4405 12.8353 19.1379 10.5562 18.9492 8.2622C18.7605 5.9682 17.7001 3.83368 15.9859 2.29754C14.2718 0.761407 12.0342 -0.0595894 9.73332 0.00337096C7.43243 0.0663314 5.24311 1.00846 3.61553 2.63604C1.98795 4.26362 1.04582 6.45294 0.982863 8.75382C0.919903 11.0547 1.7409 13.2923 3.27704 15.0064C4.81318 16.7206 6.94769 17.781 9.24169 17.9697C11.5357 18.1584 13.8148 17.461 15.6104 16.0209L19.2904 19.7009C19.3834 19.7946 19.494 19.869 19.6158 19.9198C19.7377 19.9706 19.8684 19.9967 20.0004 19.9967C20.1324 19.9967 20.2631 19.9706 20.385 19.9198C20.5068 19.869 20.6174 19.7946 20.7104 19.7009C20.8906 19.5144 20.9914 19.2652 20.9914 19.0059C20.9914 18.7466 20.8906 18.4974 20.7104 18.3109ZM10.0004 16.0209C8.61592 16.0209 7.26255 15.6104 6.1114 14.8412C4.96026 14.072 4.06305 12.9788 3.53324 11.6997C3.00342 10.4206 2.8648 9.01314 3.1349 7.65527C3.40499 6.2974 4.07168 5.05012 5.05065 4.07115C6.02961 3.09219 7.27689 2.4255 8.63476 2.1554C9.99263 1.88531 11.4001 2.02393 12.6792 2.55374C13.9583 3.08356 15.0515 3.98076 15.8207 5.13191C16.5899 6.28305 17.0004 7.63643 17.0004 9.0209C17.0004 10.8774 16.2629 12.6579 14.9501 13.9706C13.6374 15.2834 11.8569 16.0209 10.0004 16.0209Z" fill="#FF500F"/>
</svg>
