<svg width="25" height="26" viewBox="0 0 25 26" fill="none" xmlns="http://www.w3.org/2000/svg">
<path d="M21.789 14.2351C21.5144 14.2351 21.2274 14.1483 20.9528 14.0863C20.3968 13.9646 19.8504 13.803 19.3178 13.6028C18.7388 13.3936 18.1024 13.4045 17.531 13.6333C16.9596 13.8622 16.4936 14.2929 16.2226 14.8426L15.9481 15.4005C14.7324 14.7287 13.6154 13.8944 12.6282 12.921C11.6482 11.9403 10.8083 10.8307 10.132 9.62324L10.6562 9.27611C11.2096 9.00698 11.6432 8.54408 11.8736 7.97648C12.104 7.40887 12.1149 6.77668 11.9043 6.20155C11.7061 5.67146 11.5435 5.12892 11.4176 4.57748C11.3552 4.30474 11.3052 4.01959 11.2678 3.73445C11.1162 2.8612 10.6558 2.0704 9.96932 1.50445C9.28288 0.938502 8.41557 0.634606 7.52358 0.647488H3.77937C3.24149 0.642471 2.70883 0.752635 2.21767 0.970479C1.7265 1.18832 1.28835 1.50873 0.933054 1.9099C0.577754 2.31106 0.313642 2.78356 0.158699 3.29523C0.00375506 3.8069 -0.0383825 4.34572 0.0351546 4.87502C0.700049 10.0688 3.08797 14.8945 6.82173 18.5899C10.5555 22.2852 15.4223 24.6397 20.6533 25.2812H21.1275C22.0479 25.2826 22.9365 24.9471 23.6237 24.339C24.0185 23.9882 24.3339 23.5582 24.5491 23.0773C24.7642 22.5965 24.8742 22.0758 24.8718 21.5496V17.8304C24.8565 16.9692 24.5408 16.14 23.9786 15.4843C23.4163 14.8287 22.6425 14.3871 21.789 14.2351ZM22.4131 21.6736C22.4128 21.8496 22.3749 22.0235 22.3017 22.1839C22.2285 22.3442 22.1218 22.4872 21.9887 22.6034C21.8493 22.723 21.6862 22.8123 21.51 22.8657C21.3337 22.9191 21.1482 22.9353 20.9653 22.9133C16.2911 22.318 11.9495 20.1939 8.62527 16.8761C5.30101 13.5583 3.1833 9.23562 2.60618 4.58988C2.58632 4.40828 2.60372 4.22456 2.65735 4.04983C2.71098 3.8751 2.79972 3.71299 2.9182 3.57329C3.03515 3.44104 3.17912 3.33506 3.34052 3.26238C3.50191 3.1897 3.67704 3.152 3.85425 3.15177H7.59846C7.8887 3.14536 8.1721 3.23965 8.3999 3.41841C8.6277 3.59717 8.78564 3.84922 8.84653 4.13117C8.89645 4.47003 8.95886 4.80477 9.03374 5.13536C9.17792 5.78889 9.3698 6.43112 9.60785 7.05697L7.86056 7.8628C7.71116 7.93089 7.57677 8.02762 7.46511 8.14744C7.35346 8.26726 7.26672 8.40781 7.2099 8.56102C7.15308 8.71423 7.12728 8.87708 7.13399 9.04022C7.1407 9.20335 7.17978 9.36357 7.249 9.51166C9.04523 13.3335 12.138 16.4056 15.9855 18.1899C16.2894 18.3139 16.6302 18.3139 16.934 18.1899C17.0897 18.1346 17.2327 18.0491 17.3548 17.9384C17.477 17.8278 17.5757 17.6941 17.6454 17.5452L18.4192 15.8096C19.0644 16.0388 19.7229 16.2292 20.3912 16.3799C20.724 16.4542 21.061 16.5162 21.4021 16.5658C21.686 16.6263 21.9397 16.7832 22.1197 17.0095C22.2996 17.2357 22.3946 17.5173 22.3881 17.8056L22.4131 21.6736Z" fill="black"/>
</svg>
