<svg width="22" height="17" viewBox="0 0 22 17" fill="none" xmlns="http://www.w3.org/2000/svg">
<path d="M19 0H3C2.20435 0 1.44129 0.316071 0.87868 0.87868C0.31607 1.44129 0 2.20435 0 3V16C0 16.2652 0.105357 16.5196 0.292893 16.7071C0.48043 16.8946 0.734784 17 1 17H5C5.16471 16.9991 5.32665 16.9576 5.47145 16.8791C5.61625 16.8006 5.73941 16.6876 5.83 16.55L7.54 14H14.46L16.17 16.55C16.2606 16.6876 16.3838 16.8006 16.5285 16.8791C16.6733 16.9576 16.8353 16.9991 17 17H21C21.2652 17 21.5196 16.8946 21.7071 16.7071C21.8946 16.5196 22 16.2652 22 16V3C22 2.20435 21.6839 1.44129 21.1213 0.87868C20.5587 0.316071 19.7956 0 19 0ZM20 15H17.54L15.83 12.5C15.7454 12.3531 15.6248 12.2302 15.4796 12.1428C15.3344 12.0553 15.1694 12.0062 15 12H7C6.83529 12.0009 6.67335 12.0424 6.52855 12.1209C6.38375 12.1994 6.26059 12.3124 6.17 12.45L4.46 15H2V10H20V15ZM6 8V7C6 6.73478 6.10536 6.48043 6.29289 6.29289C6.48043 6.10536 6.73478 6 7 6H9C9.26522 6 9.51957 6.10536 9.70711 6.29289C9.89464 6.48043 10 6.73478 10 7V8H6ZM12 8V7C12 6.73478 12.1054 6.48043 12.2929 6.29289C12.4804 6.10536 12.7348 6 13 6H15C15.2652 6 15.5196 6.10536 15.7071 6.29289C15.8946 6.48043 16 6.73478 16 7V8H12ZM20 8H18V7C18 6.20435 17.6839 5.44129 17.1213 4.87868C16.5587 4.31607 15.7956 4 15 4H13C12.2599 4.00441 11.5476 4.28221 11 4.78C10.4524 4.28221 9.74006 4.00441 9 4H7C6.20435 4 5.44129 4.31607 4.87868 4.87868C4.31607 5.44129 4 6.20435 4 7V8H2V3C2 2.73478 2.10536 2.48043 2.29289 2.29289C2.48043 2.10536 2.73478 2 3 2H19C19.2652 2 19.5196 2.10536 19.7071 2.29289C19.8946 2.48043 20 2.73478 20 3V8Z" fill="#FF500F"/>
</svg>
