<svg width="21" height="20" viewBox="0 0 21 20" fill="none" xmlns="http://www.w3.org/2000/svg">
<path d="M19.9936 7.67002C19.9305 7.48711 19.8156 7.32645 19.663 7.20753C19.5103 7.0886 19.3264 7.01652 19.1336 7.00002L13.4436 6.17002L10.8936 1.00002C10.8117 0.830952 10.6839 0.688365 10.5247 0.588597C10.3655 0.488828 10.1815 0.435913 9.99363 0.435913C9.80577 0.435913 9.62171 0.488828 9.46254 0.588597C9.30337 0.688365 9.17551 0.830952 9.09363 1.00002L6.54363 6.16002L0.85363 7.00002C0.668552 7.02633 0.494554 7.10399 0.35138 7.22418C0.208206 7.34438 0.10159 7.5023 0.0436298 7.68002C-0.00942525 7.8537 -0.0141863 8.03854 0.0298575 8.21472C0.0739014 8.39089 0.165087 8.55175 0.29363 8.68002L4.42363 12.68L3.42363 18.36C3.38793 18.5475 3.40662 18.7413 3.4775 18.9185C3.54838 19.0957 3.66848 19.2489 3.82363 19.36C3.97485 19.4681 4.1532 19.5319 4.33868 19.5443C4.52415 19.5567 4.7094 19.5171 4.87363 19.43L9.99363 16.76L15.0936 19.44C15.234 19.5192 15.3925 19.5606 15.5536 19.56C15.7655 19.5608 15.972 19.4942 16.1436 19.37C16.2988 19.2589 16.4189 19.1057 16.4898 18.9285C16.5606 18.7513 16.5793 18.5575 16.5436 18.37L15.5436 12.69L19.6736 8.69002C19.818 8.5677 19.9247 8.40693 19.9814 8.22637C20.038 8.04582 20.0423 7.8529 19.9936 7.67002ZM13.8436 11.67C13.7264 11.7835 13.6386 11.9239 13.5881 12.079C13.5375 12.2341 13.5257 12.3993 13.5536 12.56L14.2736 16.75L10.5136 14.75C10.3689 14.673 10.2075 14.6327 10.0436 14.6327C9.87971 14.6327 9.71831 14.673 9.57363 14.75L5.81363 16.75L6.53363 12.56C6.56157 12.3993 6.54974 12.2341 6.49919 12.079C6.44865 11.9239 6.36091 11.7835 6.24363 11.67L3.24363 8.67002L7.45363 8.06002C7.61563 8.03749 7.76963 7.97556 7.90213 7.87967C8.03463 7.78379 8.14159 7.65686 8.21363 7.51002L9.99363 3.70002L11.8736 7.52002C11.9457 7.66686 12.0526 7.79379 12.1851 7.88968C12.3176 7.98556 12.4716 8.04749 12.6336 8.07002L16.8436 8.68002L13.8436 11.67Z" fill="#FF500F"/>
</svg>
